<?xml version="1.0" standalone="no"?>
<!DOCTYPE svg PUBLIC "-//W3C//DTD SVG 20010904//EN"
 "http://www.w3.org/TR/2001/REC-SVG-20010904/DTD/svg10.dtd">
<svg version="1.0" xmlns="http://www.w3.org/2000/svg"
 width="512.000000pt" height="512.000000pt" viewBox="0 0 512.000000 512.000000"
 preserveAspectRatio="xMidYMid meet">
<metadata>
Created by potrace 1.14, written by Peter Selinger 2001-2017
</metadata>
<g transform="translate(0.000000,512.000000) scale(0.100000,-0.100000)"
fill="#000000" stroke="none">
<path d="M545 4940 c-49 -21 -90 -61 -118 -115 l-21 -40 3 -2029 c3 -2208 -1
-2057 57 -2133 36 -48 90 -79 154 -89 31 -5 891 -9 1970 -8 l1915 1 51 22 c63
27 106 71 134 134 l21 47 1 2029 0 2028 -21 41 c-12 23 -33 53 -48 67 -56 53
-78 59 -234 63 l-146 4 -21 -27 c-19 -24 -22 -40 -22 -132 l0 -105 59 -55 c83
-77 109 -157 80 -254 -25 -81 -126 -159 -207 -159 -134 0 -242 103 -242 231 0
71 20 112 86 177 l64 63 0 105 c0 98 -2 107 -25 129 l-24 25 -1449 0 -1449 0
-27 -21 c-25 -20 -26 -23 -26 -131 l0 -110 54 -50 c63 -57 96 -120 96 -179 0
-129 -86 -223 -216 -236 -99 -10 -207 64 -234 163 -23 82 0 173 59 228 16 15
41 38 55 51 25 23 26 29 26 130 0 100 -1 107 -25 131 -24 24 -28 25 -157 23
-102 -1 -142 -6 -173 -19z"/>
</g>
</svg>
